HIERARCHY
ROOT root
{
	OFFSET 0.000000 0.000000 0.000000
	CHANNELS 6 Xposition Yposition Zposition Zrotation Yrotation Xrotation
	JOINT lhip
	{
		OFFSET 0.058581 -0.082280 -0.017664
		CHANNELS 3 Zrotation Yrotation Xrotation
		JOINT lknee
		{
			OFFSET 0.043451 -0.386469 0.008037
			CHANNELS 3 Zrotation Yrotation Xrotation
			JOINT lankle
			{
				OFFSET -0.014790 -0.426874 -0.037428
				CHANNELS 3 Zrotation Yrotation Xrotation
				JOINT ltoe
				{
					OFFSET 0.041054 -0.060286 0.122042
					CHANNELS 3 Zrotation Yrotation Xrotation
					End Site
					{
						OFFSET 0.000000 0.000000 0.000000
					}
				}
			}
		}
	}
	JOINT rhip
	{
		OFFSET -0.060310 -0.090513 -0.013543
		CHANNELS 3 Zrotation Yrotation Xrotation
		JOINT rknee
		{
			OFFSET -0.043257 -0.383688 -0.004843
			CHANNELS 3 Zrotation Yrotation Xrotation
			JOINT rankle
			{
				OFFSET 0.019056 -0.420046 -0.034562
				CHANNELS 3 Zrotation Yrotation Xrotation
				JOINT rtoe
				{
					OFFSET -0.034840 -0.062106 0.130323
					CHANNELS 3 Zrotation Yrotation Xrotation
					End Site
					{
						OFFSET 0.000000 0.000000 0.000000
					}
				}
			}
		}
	}
	JOINT lowerback
	{
		OFFSET 0.004439 0.124404 -0.038385
		CHANNELS 3 Zrotation Yrotation Xrotation
		JOINT upperback
		{
			OFFSET 0.004488 0.137956 0.026820
			CHANNELS 3 Zrotation Yrotation Xrotation
			JOINT chest
			{
				OFFSET -0.002265 0.056032 0.002855
				CHANNELS 3 Zrotation Yrotation Xrotation
				JOINT lowerneck
				{
					OFFSET -0.013390 0.211636 -0.033468
					CHANNELS 3 Zrotation Yrotation Xrotation
					JOINT upperneck
					{
						OFFSET 0.010113 0.088937 0.050410
						CHANNELS 3 Zrotation Yrotation Xrotation
						End Site
						{
							OFFSET 0.000000 0.000000 0.000000
						}
					}
				}
				JOINT lclavicle
				{
					OFFSET 0.071702 0.114000 -0.018898
					CHANNELS 3 Zrotation Yrotation Xrotation
					JOINT lshoulder
					{
						OFFSET 0.122921 0.045205 -0.019046
						CHANNELS 3 Zrotation Yrotation Xrotation
						JOINT lelbow
						{
							OFFSET 0.255332 -0.015649 -0.022946
							CHANNELS 3 Zrotation Yrotation Xrotation
							JOINT lwrist
							{
								OFFSET 0.265709 0.012698 -0.007375
								CHANNELS 3 Zrotation Yrotation Xrotation
								End Site
								{
									OFFSET 0.000000 0.000000 0.000000
								}
							}
						}
					}
				}
				JOINT rclavicle
				{
					OFFSET -0.082954 0.112472 -0.023707
					CHANNELS 3 Zrotation Yrotation Xrotation
					JOINT rshoulder
					{
						OFFSET -0.113228 0.046853 -0.008472
						CHANNELS 3 Zrotation Yrotation Xrotation
						JOINT relbow
						{
							OFFSET -0.260127 -0.014369 -0.031269
							CHANNELS 3 Zrotation Yrotation Xrotation
							JOINT rwrist
							{
								OFFSET -0.269108 0.006794 -0.006027
								CHANNELS 3 Zrotation Yrotation Xrotation
								End Site
								{
									OFFSET 0.000000 0.000000 0.000000
								}
							}
						}
					}
				}
			}
		}
	}
}
MOTION
Frames: 16
Frame Time: 0.033333
2.179612 -0.000665 0.995343 -1.717852 0.463691 91.415669 4.056294 -0.693021 -3.103330 -9.500106 -8.766537 0.950252 6.068884 5.260294 -8.743920 0.000000 -0.000000 0.000000 -3.942665 -1.678664 -7.143658 8.709834 0.978166 12.293900 0.817689 -1.073413 -8.800887 0.000000 -0.000000 0.000000 -0.333409 2.470407 4.090473 -0.006641 -0.459496 -4.406235 -1.386819 -0.417724 -2.266247 3.232494 -6.693147 -3.233650 3.124344 -13.200204 5.290001 -27.682886 1.390720 4.384795 -60.248821 -5.000427 10.933553 5.147891 -24.928797 7.907513 -4.902995 -8.063817 -11.057274 25.638082 4.715553 4.601387 61.561874 4.993679 17.641442 -4.517450 25.353692 14.783986 10.760341 3.817473 0.134394 
2.179925 -0.000565 0.995431 -1.604560 0.466604 91.499316 4.014275 -0.787771 -3.384059 -9.531088 -8.912852 1.284375 5.949570 5.424174 -8.884291 0.000000 -0.000000 0.000000 -3.817490 -1.339184 -7.366709 8.604988 1.448181 12.515086 1.269769 -1.966174 -8.907865 0.000000 -0.000000 0.000000 -0.433419 2.248511 4.196559 -0.060978 -0.433542 -4.551666 -1.368127 -0.485640 -1.992240 3.482339 -6.864873 -3.983363 2.943965 -13.669107 5.710342 -27.456846 1.381579 4.324944 -60.308823 -5.175005 11.100415 5.325668 -24.748530 8.267420 -5.030856 -8.019272 -10.836470 25.513320 4.781443 4.298974 61.823739 4.970999 17.910485 -4.744840 25.383095 14.572932 10.793229 3.798743 0.084984 
2.180240 -0.000501 0.995780 -1.519307 0.453294 91.541526 3.905433 -0.833468 -3.648902 -9.511576 -8.969925 1.702798 5.991493 5.484943 -9.060509 0.000000 -0.000000 0.000000 -3.701214 -1.158748 -7.743870 8.392387 1.531875 13.112143 1.336221 -2.204246 -9.190027 0.000000 -0.000000 0.000000 -0.631152 2.130015 4.457059 -0.047425 -0.540938 -4.672577 -1.350735 -0.554720 -1.958676 3.704194 -7.095435 -4.348098 3.035327 -14.047651 5.641802 -27.346125 1.269396 4.303879 -60.235524 -5.269616 11.103522 5.289052 -24.592103 8.051992 -4.788850 -8.051577 -10.948581 25.461531 4.830422 4.142448 62.019065 4.923116 17.955301 -4.967536 25.479610 14.377744 10.740249 3.853861 -0.030693 
2.180884 -0.000347 0.996369 -1.474099 0.470451 91.617983 3.749353 -0.775520 -4.019983 -9.433317 -9.052640 2.259524 5.942363 5.552115 -9.265409 0.000000 -0.000000 0.000000 -3.395297 -0.948973 -8.362918 7.879282 1.579475 14.054427 1.372187 -2.435977 -9.650427 0.000000 -0.000000 0.000000 -0.880774 1.986476 4.848584 -0.038679 -0.597738 -4.850991 -1.327057 -0.687249 -1.913655 3.913625 -7.432872 -4.900159 3.145740 -14.676745 5.701353 -27.354186 1.038818 4.237013 -59.951004 -5.414776 11.124114 5.322987 -24.325008 7.779130 -4.628081 -8.030422 -10.680680 25.533274 4.875002 3.871063 61.966222 4.772209 17.961683 -5.043224 25.724905 14.032994 10.642947 3.921871 -0.094247 
2.181295 -0.000247 0.996742 -1.504359 0.448003 91.699391 3.611309 -0.706288 -4.213836 -9.369360 -9.104033 2.493160 5.917515 5.607276 -9.342413 0.000000 -0.000000 0.000000 -3.184575 -0.817476 -8.800757 7.474934 1.649893 14.672316 1.362200 -2.626777 -9.958803 0.000000 -0.000000 0.000000 -1.112332 1.860210 5.082674 -0.036350 -0.634880 -4.968355 -1.310062 -0.731920 -1.893187 4.069371 -7.609784 -5.269907 3.274538 -15.051368 5.761321 -27.307663 0.937929 4.201825 -59.816015 -5.518754 11.138676 5.387368 -24.234553 7.610231 -4.525959 -8.005420 -10.560402 25.569219 4.900175 3.725847 61.939328 4.696639 18.014709 -5.085042 25.875149 13.898139 10.629992 3.991170 -0.154661 
2.182205 0.000016 0.997331 -1.639898 0.404943 91.805085 3.349841 -0.603108 -4.373727 -9.207419 -9.139159 2.628418 5.908611 5.735432 -9.387830 0.000000 -0.000000 0.000000 -2.830102 -0.628586 -9.594269 6.751465 1.708315 15.839520 1.384672 -2.834809 -10.471979 0.000000 -0.000000 0.000000 -1.411597 1.671952 5.508519 -0.054946 -0.650898 -5.208401 -1.293191 -0.764994 -1.847723 4.326234 -7.780374 -5.794621 3.394575 -15.451113 5.849570 -27.239274 0.848418 4.103936 -59.666700 -5.679705 11.159600 5.433386 -24.190490 7.341740 -4.334653 -7.989613 -10.456405 25.572979 4.960006 3.527825 61.891204 4.573241 18.142518 -5.181322 26.083241 13.712160 10.580623 4.068513 -0.236328 
2.184102 0.000909 0.997696 -1.802278 0.256593 91.967704 2.845862 -0.664032 -4.564191 -8.924816 -9.112363 2.638332 6.038190 5.974053 -9.407341 0.000000 -0.000000 0.000000 -2.646467 -0.394542 -10.952175 6.032989 1.817606 17.828978 1.572276 -3.102912 -11.161620 0.000000 -0.000000 0.000000 -1.625805 1.467118 6.071210 -0.144110 -0.756194 -5.605619 -1.437463 -0.758752 -1.717001 4.697001 -7.801344 -6.455709 3.354196 -15.875304 6.102268 -27.068404 0.878216 3.822233 -59.575883 -5.844504 11.258941 5.394598 -24.208650 7.121667 -4.198232 -8.012850 -10.303618 25.638434 4.968645 3.188443 61.856374 4.486656 18.366140 -5.444248 26.176287 13.235642 10.546765 4.154881 -0.144583 
2.185288 0.001803 0.997792 -2.229452 0.040186 91.968455 2.384412 -0.592286 -4.359094 -8.752836 -9.111167 2.305302 6.178600 6.287832 -9.347163 0.000000 -0.000000 0.000000 -2.319001 0.172619 -12.711217 5.137173 2.172411 20.773971 1.739490 -3.611828 -12.008717 0.000000 -0.000000 0.000000 -2.383055 1.211626 6.764966 -0.055849 -0.628212 -5.890892 -1.306876 -0.729457 -1.559984 5.145714 -7.749400 -7.137476 3.266116 -16.236137 6.272906 -26.836394 0.879324 3.588528 -59.561608 -6.041214 11.423449 5.269766 -24.399804 6.878120 -3.930286 -8.045801 -10.338817 25.707861 4.997415 2.749633 61.653932 4.404187 18.683573 -5.629042 26.383579 12.727513 10.498632 4.250495 -0.163154 
2.186544 0.002479 0.997292 -2.797583 -0.270939 91.812231 1.851889 -0.487866 -3.828084 -8.628412 -9.168113 1.676011 6.414323 6.718181 -9.182720 0.000000 -0.000000 0.000000 -2.086563 1.055353 -14.745954 4.342643 2.561435 24.462087 1.873817 -4.305541 -12.921062 0.000000 -0.000000 0.000000 -3.542695 1.099372 7.567912 0.158206 -0.242533 -6.048916 -0.920727 -0.985061 -1.398019 5.537974 -7.745174 -7.713375 3.131047 -16.585842 6.320421 -26.625683 0.720940 3.588050 -59.673885 -6.284892 11.644120 5.273603 -24.789486 6.631561 -3.809652 -8.033038 -10.463310 25.665949 5.066471 2.271268 61.419286 4.321157 18.986821 -6.039058 26.726818 12.082834 10.510299 4.347422 -0.250560 
2.188041 0.002762 0.995528 -3.480410 -0.766549 91.530461 1.269160 -0.211698 -2.816549 -8.694170 -9.307827 0.420993 6.659941 7.097944 -8.838648 0.000000 -0.000000 0.000000 -2.205527 2.190948 -17.174107 3.714836 2.712596 29.150465 2.178236 -4.902868 -13.982208 0.000000 -0.000000 0.000000 -5.052372 0.648694 8.881377 0.345942 -0.046085 -6.524005 -0.544896 -1.096187 -1.366198 6.123871 -7.554594 -8.012325 2.969883 -16.879205 6.404806 -26.216213 0.719736 3.707967 -59.626013 -6.362743 11.841598 5.032126 -25.480754 6.479673 -3.768898 -8.174001 -10.865349 25.946504 5.140363 1.801989 61.048696 4.257532 19.347496 -6.610358 27.183141 11.234918 10.508779 4.503289 -0.344189 
2.189321 0.002772 0.993035 -3.984601 -1.183537 91.312616 1.042141 0.212050 -1.813563 -9.080207 -9.445067 -0.963942 6.793925 7.178909 -8.431876 0.000000 -0.000000 0.000000 -2.574577 2.809563 -18.897594 3.626675 2.888826 32.560472 2.443559 -5.058238 -14.563903 0.000000 -0.000000 0.000000 -6.184296 0.268871 9.729138 0.509393 -0.063288 -6.677233 -0.341476 -1.234300 -1.390843 6.453230 -7.338079 -8.033699 2.836253 -17.195562 6.596691 -26.016927 0.572729 3.896845 -59.355740 -6.438246 11.958440 4.769696 -25.885055 6.288152 -3.654052 -8.366056 -11.276139 26.334667 5.243924 1.580230 60.648452 4.369995 19.530586 -7.162516 27.622798 10.457512 10.443110 4.601310 -0.576446 
2.190193 0.002662 0.990242 -4.473819 -1.441931 91.203712 1.213972 0.878544 -0.818403 -9.739614 -9.557794 -2.493934 6.817348 6.980707 -7.984468 0.000000 -0.000000 0.000000 -2.953022 2.955574 -20.440638 3.895054 2.880258 35.416310 2.612399 -4.869181 -14.806972 0.000000 -0.000000 0.000000 -7.088814 -0.088425 10.222080 0.711295 -0.199765 -6.634622 -0.222353 -1.469170 -1.452612 6.799086 -7.005900 -7.796401 2.618929 -17.315053 6.879660 -25.961325 0.368981 4.034419 -58.914113 -6.535163 11.992641 4.599551 -25.819630 6.326911 -3.756062 -8.438588 -11.102975 26.798154 5.278312 1.475499 60.274568 4.676114 19.552552 -7.745331 27.919294 9.613644 10.365418 4.661417 -0.763916 
2.191201 0.002494 0.988310 -4.886682 -1.449771 91.116287 1.572854 1.585919 -0.117713 -10.335867 -9.708140 -3.511811 6.804357 6.705934 -7.684006 0.000000 -0.000000 0.000000 -3.471380 2.475342 -21.698223 4.531523 2.187624 37.625405 3.056257 -4.041827 -14.448941 0.000000 -0.000000 0.000000 -7.482523 -0.431170 10.677683 0.837906 -0.466190 -6.605375 -0.206117 -1.715721 -1.646391 7.040666 -6.730446 -7.292874 2.445522 -17.326606 7.166182 -26.060490 0.130756 4.056644 -58.499659 -6.676088 11.831299 4.538086 -25.133503 6.156430 -3.917317 -8.377957 -10.498382 27.199498 5.142820 1.398774 60.216063 5.031848 19.172506 -8.535905 27.872358 8.528209 10.256766 4.699574 -0.743337 
2.191706 0.003251 0.987822 -5.323736 -1.135515 91.038996 2.145279 2.063405 -0.001209 -10.807293 -9.652664 -3.574462 6.818295 6.578080 -7.684104 0.000000 -0.000000 0.000000 -3.942733 1.834401 -22.964235 5.416565 0.886713 39.571309 3.963390 -2.823228 -13.185073 0.000000 -0.000000 0.000000 -7.588087 -0.720596 11.262623 0.991790 -0.732220 -6.686500 -0.143853 -1.892325 -1.786384 7.231443 -6.645574 -6.888861 2.347531 -17.484777 7.600957 -26.143660 -0.122983 3.947072 -58.341257 -6.930129 11.634541 4.815302 -24.112076 5.813271 -4.270339 -8.191796 -9.593257 27.476440 4.865751 1.256015 60.375617 5.360083 18.586627 -9.524258 27.705059 7.183043 10.165526 4.735369 -0.807173 
2.191552 0.005454 0.988771 -5.982396 -0.596538 90.880199 2.877699 2.385186 -0.131299 -11.160143 -9.363975 -3.099599 6.919462 6.677320 -7.842279 0.000000 -0.000000 0.000000 -4.516202 1.219403 -24.425008 6.552470 -0.725996 41.659808 5.560399 -1.057957 -10.690238 0.000000 -0.000000 0.000000 -7.676093 -0.864185 12.078813 1.231181 -0.835062 -6.794362 0.057368 -1.957459 -1.921801 7.385730 -6.796552 -6.563261 2.412506 -17.729146 7.947987 -26.152284 -0.401558 3.811487 -58.402032 -7.215370 11.495619 5.280059 -23.256328 5.352792 -4.893858 -8.027237 -8.565666 27.618444 4.568898 1.184306 60.625382 5.657480 17.832939 -10.638119 27.490050 5.484277 10.140172 4.767005 -1.018362 
2.191376 0.007854 0.990859 -6.848095 0.147087 90.502067 3.781357 2.789877 0.055660 -11.395886 -9.088175 -2.707375 6.976079 6.879217 -7.994083 0.000000 -0.000000 0.000000 -5.355494 0.427497 -25.817653 7.966829 -2.416227 43.774915 8.130436 1.474498 -6.846622 0.000000 -0.000000 0.000000 -7.546501 -0.931960 13.077527 1.457789 -0.736566 -6.710119 0.292958 -1.923484 -2.158055 7.499300 -7.207226 -6.122430 2.658516 -17.966572 8.093177 -26.171020 -0.704618 3.720706 -58.534553 -7.472332 11.378351 5.450475 -23.063223 4.428785 -5.060353 -7.979846 -8.096999 27.710466 4.352800 1.270566 60.637026 5.893254 16.980249 -11.571594 27.378246 3.748327 10.033468 4.820090 -1.088882 
